<?xml version="1.0" standalone="no"?>
<!DOCTYPE svg PUBLIC "-//W3C//DTD SVG 20010904//EN"
 "http://www.w3.org/TR/2001/REC-SVG-20010904/DTD/svg10.dtd">
<svg version="1.0" xmlns="http://www.w3.org/2000/svg"
 width="118.000000pt" height="110.000000pt" viewBox="0 0 118.000000 110.000000"
 preserveAspectRatio="xMidYMid meet">

<g transform="translate(0.000000,110.000000) scale(0.100000,-0.100000)"
fill="#000000" stroke="none">
<path d="M715 1080 c-16 -5 -51 -32 -77 -60 -54 -59 -90 -66 -128 -25 -30 32
-64 32 -95 0 -30 -30 -31 -54 -4 -89 27 -34 72 -35 103 -1 16 17 34 25 56 25
27 0 45 11 96 60 l62 60 72 0 c63 0 71 2 68 18 -3 14 -15 17 -63 19 -33 1 -73
-2 -90 -7z m-241 -106 c21 -8 21 -43 0 -51 -8 -3 -23 1 -31 10 -13 13 -14 19
-3 31 14 18 13 18 34 10z"/>
<path d="M142 968 c-8 -8 -12 -45 -12 -101 l0 -88 70 -74 70 -74 0 -113 c0
-107 -2 -114 -25 -137 -32 -30 -32 -65 1 -97 19 -20 31 -24 52 -19 64 16 85
85 37 123 -24 19 -25 24 -25 142 l0 122 -70 72 -70 73 0 71 0 71 87 3 c74 3
88 6 91 21 3 15 -7 17 -95 17 -64 0 -103 -4 -111 -12z m175 -624 c3 -8 -2 -23
-11 -32 -14 -15 -18 -15 -31 -1 -9 9 -13 23 -9 32 8 21 43 22 51 1z"/>
<path d="M685 910 l-74 -70 -112 0 c-106 0 -113 1 -135 25 -29 32 -68 32 -99
0 -32 -31 -32 -59 0 -90 31 -32 70 -32 99 0 22 24 28 25 145 25 l121 0 69 70
69 71 74 -3 73 -3 3 -88 c2 -77 5 -88 20 -85 14 3 17 18 20 91 4 124 1 127
-109 127 l-90 0 -74 -70z m-347 -88 c4 -28 -24 -40 -45 -19 -14 13 -14 19 -3
32 18 22 44 15 48 -13z"/>
<path d="M23 874 c-3 -8 -3 -44 0 -80 5 -62 7 -67 61 -124 64 -67 70 -95 31
-142 -14 -16 -25 -38 -25 -49 0 -24 43 -69 65 -69 20 0 57 19 67 34 16 24 8
67 -17 90 -18 17 -25 34 -25 60 0 30 -9 45 -51 89 -60 62 -69 81 -69 153 0 42
-3 54 -15 54 -9 0 -18 -7 -22 -16z m165 -390 c4 -26 -26 -40 -45 -21 -8 7 -11
21 -7 31 9 24 48 17 52 -10z"/>
<path d="M752 847 c-29 -31 -28 -72 3 -101 24 -22 25 -28 25 -145 l0 -121 70
-74 71 -74 -3 -69 -3 -68 -88 -3 c-77 -2 -88 -5 -85 -20 3 -14 18 -17 91 -20
124 -4 127 -2 127 110 l0 91 -70 73 -70 72 0 114 c0 109 1 116 25 138 32 30
32 64 0 95 -30 31 -65 32 -93 2z m74 -32 c7 -18 -13 -45 -33 -45 -17 0 -27 24
-19 45 7 20 45 19 52 0z"/>
<path d="M882 700 c-30 -28 -29 -75 3 -104 17 -16 25 -34 25 -58 0 -27 9 -43
46 -78 60 -59 74 -88 74 -153 0 -29 3 -57 7 -60 14 -15 33 18 33 58 0 77 -11
105 -66 165 -61 66 -68 95 -29 134 32 32 32 60 0 91 -29 30 -64 32 -93 5z m63
-50 c0 -29 -32 -41 -41 -16 -9 24 4 48 23 44 12 -2 18 -12 18 -28z"/>
<path d="M722 355 c-21 -24 -26 -25 -143 -25 l-121 0 -73 -70 -73 -71 -68 3
-69 3 -3 88 c-3 79 -5 87 -22 87 -19 0 -20 -7 -20 -98 0 -63 4 -102 12 -110 8
-8 45 -12 101 -12 l89 0 72 70 73 70 112 0 c106 0 115 -2 143 -25 16 -14 38
-25 49 -25 28 0 69 44 69 75 0 61 -86 88 -128 40z m85 -31 c4 -11 -1 -22 -12
-31 -16 -11 -21 -11 -33 1 -8 8 -12 22 -9 30 8 21 46 21 54 0z"/>
<path d="M572 225 c-15 -18 -32 -25 -56 -25 -28 0 -46 -10 -94 -55 -58 -54
-61 -55 -118 -55 -63 0 -91 -11 -80 -29 4 -6 38 -11 82 -11 l75 0 57 54 c73
69 106 79 136 41 58 -73 164 7 110 83 -22 32 -83 31 -112 -3z m85 -31 c7 -20
-22 -45 -43 -37 -14 5 -19 35 -7 46 12 13 44 7 50 -9z"/>
</g>
</svg>
